<?xml version="1.0" standalone="no"?>
<!DOCTYPE svg PUBLIC "-//W3C//DTD SVG 20010904//EN"
 "http://www.w3.org/TR/2001/REC-SVG-20010904/DTD/svg10.dtd">
<svg version="1.0" xmlns="http://www.w3.org/2000/svg"
 width="1122.000000pt" height="897.000000pt" viewBox="0 0 1122.000000 897.000000"
 preserveAspectRatio="xMidYMid meet">
<metadata>
Created by potrace 1.16, written by Peter Selinger 2001-2019
</metadata>
<g transform="translate(0.000000,897.000000) scale(0.100000,-0.100000)"
fill="#000000" stroke="none">
<path d="M310 8883 c-97 -105 -191 -235 -260 -359 l-50 -90 0 -1187 0 -1187
75 -332 c42 -183 93 -409 115 -503 49 -215 167 -736 260 -1145 39 -173 104
-461 145 -640 97 -428 197 -868 290 -1280 316 -1396 412 -1755 558 -2086 l32
-74 4240 0 4240 0 14 22 c34 54 122 243 155 332 125 333 203 720 341 1686 138
972 566 4025 589 4210 53 416 61 519 61 870 0 271 -4 358 -18 455 -29 192 -60
320 -119 480 -138 373 -348 651 -662 873 l-59 42 -4933 0 -4933 0 -81 -87z
m4314 -819 c9 -8 16 -17 16 -19 0 -3 151 -673 165 -731 13 -56 77 -39 -1642
-429 -886 -201 -1623 -365 -1637 -365 -13 0 -31 6 -38 14 -14 13 -178 720
-178 763 0 32 24 50 83 63 28 6 752 170 1607 365 855 194 1567 354 1582 354
15 1 34 -6 42 -15z m2001 -4 c13 -15 19 -37 20 -76 l1 -55 -31 5 c-16 3 -51 8
-78 12 -26 3 -50 10 -53 15 -3 5 -1 9 5 9 6 0 13 17 17 38 4 20 13 45 22 55
21 24 74 22 97 -3z m2718 -359 c43 -17 67 -51 67 -97 0 -68 -66 -116 -128 -93
-13 5 -36 9 -52 9 -28 0 -29 2 -19 26 5 15 7 35 4 45 -10 31 21 88 57 104 40
17 41 17 71 6z m-1265 -281 c1434 -201 1568 -222 1585 -241 9 -12 17 -29 17
-39 0 -25 -170 -1231 -176 -1253 -3 -10 -16 -24 -29 -33 -21 -13 -155 4 -1596
206 -866 121 -1584 225 -1596 230 -12 5 -25 21 -29 36 -6 23 142 1136 166
1249 10 44 32 65 67 65 13 0 729 -99 1591 -220z m-2926 -722 c3 -7 142 -618
309 -1357 167 -739 305 -1338 306 -1330 2 8 57 398 123 868 65 469 121 855
123 858 3 2 616 -82 1363 -187 748 -105 1539 -216 1759 -246 220 -30 407 -58
416 -62 13 -6 -15 -224 -232 -1767 -438 -3112 -395 -2821 -429 -2892 -41 -88
-117 -165 -205 -209 -127 -63 -61 -69 -1573 145 l-1343 190 -1319 -300 c-991
-225 -1335 -299 -1384 -299 -169 0 -327 105 -394 261 -11 25 -43 148 -71 274
-29 127 -306 1349 -617 2718 -310 1368 -564 2492 -564 2497 0 6 8 10 18 10 9
1 845 189 1857 419 1012 231 1843 419 1846 420 4 1 9 -5 11 -11z"/>
<path d="M6585 7359 c-2 -8 -9 -43 -15 -79 -9 -58 -8 -67 9 -80 10 -8 21 -22
24 -31 6 -17 133 -42 227 -43 l45 -1 11 70 c13 74 10 95 -11 95 -8 0 -15 10
-17 23 -3 19 -12 24 -73 34 -140 23 -194 26 -200 12z"/>
<path d="M6605 6700 c-4 -6 -1 -21 7 -33 19 -30 17 -39 -18 -79 -25 -28 -32
-32 -42 -21 -7 7 -23 13 -36 13 -18 0 -25 -7 -30 -31 -12 -64 -8 -79 22 -79
15 0 47 -9 71 -20 49 -23 78 -24 136 -6 38 11 40 14 37 46 -2 19 -12 55 -23
80 -20 44 -20 44 1 72 27 37 26 52 -4 44 -14 -3 -28 -1 -32 5 -3 6 -15 8 -27
5 -11 -3 -28 -1 -38 5 -12 6 -20 5 -24 -1z"/>
<path d="M6155 4935 c-84 -30 -137 -124 -115 -205 21 -79 89 -132 169 -133
103 -1 176 71 176 173 -1 68 -28 117 -82 147 -53 30 -101 35 -148 18z"/>
<path d="M2265 4442 c-106 -51 -144 -172 -82 -264 65 -96 186 -112 274 -35 65
57 80 135 42 215 -41 84 -150 124 -234 84z"/>
<path d="M4404 2641 c-77 -47 -100 -122 -62 -198 33 -66 66 -88 136 -88 94 0
154 59 154 151 0 117 -131 194 -228 135z"/>
<path d="M2725 2456 c-131 -49 -162 -220 -55 -310 90 -75 229 -46 280 59 26
53 25 108 -1 163 -39 80 -138 119 -224 88z"/>
<path d="M6357 2439 c-3 -13 -9 -49 -12 -80 l-7 -56 68 -8 c37 -4 73 -9 79
-12 16 -6 22 11 30 89 8 75 11 73 -87 83 -63 7 -66 6 -71 -16z m98 -6 l48 -6
-7 -60 c-3 -33 -7 -61 -9 -63 -3 -3 -120 16 -125 21 -2 2 -1 28 3 59 8 62 6
61 90 49z"/>
<path d="M7982 1649 c-129 -64 -134 -250 -9 -324 36 -20 91 -31 373 -70 363
-51 382 -51 444 1 108 92 78 270 -53 318 -44 16 -605 96 -673 96 -21 0 -58
-10 -82 -21z"/>
<path d="M2942 1609 c-47 -10 -98 -48 -123 -92 -17 -31 -20 -51 -17 -97 11
-157 188 -224 306 -116 54 49 70 140 37 211 -33 69 -123 111 -203 94z"/>
<path d="M3558 791 c-37 -9 -69 -19 -73 -22 -6 -6 20 -132 30 -149 4 -7 151
22 161 33 8 8 -30 150 -41 153 -5 1 -40 -6 -77 -15z m90 -66 c7 -32 11 -59 10
-61 -8 -7 -129 -31 -132 -25 -9 15 -28 113 -23 117 7 8 110 32 122 30 5 -2 16
-29 23 -61z"/>
</g>
</svg>
