<svg xmlns="http://www.w3.org/2000/svg" width="371" height="180" viewBox="0 0 371 180">
  <g id="Group_1719" data-name="Group 1719" transform="translate(-250 -3017)">
    <path id="Path_11471" data-name="Path 11471" d="M-14.788-24.2-26.082-8.6-37.391-24.2h-.264V0h4.746V-10.283L-26.1-.4h.029l6.8-9.888V0h4.746V-24.2ZM.212.454a12.307,12.307,0,0,0,12.3-12.231A12.341,12.341,0,0,0,.227-24.1,12.328,12.328,0,0,0-12.049-11.777,12.288,12.288,0,0,0,.212.454Zm0-4.8a7.48,7.48,0,0,1-7.471-7.456,7.5,7.5,0,0,1,7.471-7.5,7.514,7.514,0,0,1,7.5,7.5A7.5,7.5,0,0,1,.212-4.351ZM14.993,0h4.746V-23.613H14.993ZM30.316.469c5.054,0,8.569-2.739,8.569-7.046,0-3.633-2.461-5.625-6.372-7.471-2.71-1.274-4.5-1.758-4.5-3.164,0-1.216,1.318-2.241,3.091-2.241a3.641,3.641,0,0,1,3.384,1.978l3.5-2.446c-1.069-2.856-3.735-4.189-6.958-4.189-4.336,0-7.793,2.7-7.793,6.782,0,3.765,2.915,5.215,5.566,6.533,2.476,1.23,5.3,2.593,5.3,4.321,0,1.26-1.494,2.168-3.721,2.168A4.987,4.987,0,0,1,25.8-6.738L22.01-4.072C23.592-1.143,26.449.469,30.316.469Z" transform="translate(290 3117.5)" fill="none" stroke="#7474f5" stroke-width="1"/>
    <path id="Path_11470" data-name="Path 11470" d="M-21.8-23.613H-38.174v4.7h5.815V0H-27.6V-18.911h5.8ZM-10.225.513A9.032,9.032,0,0,0-1.113-8.73V-23.613H-5.889V-8.745a4.411,4.411,0,0,1-4.351,4.453,4.378,4.378,0,0,1-4.321-4.453V-23.613h-4.775V-8.73A9.032,9.032,0,0,0-10.225.513ZM20.859,0,14.15-9.39a6.916,6.916,0,0,0,4.365-6.577,7.843,7.843,0,0,0-8.027-7.646H2.783L2.8,0H7.544V-11.162L15.059,0ZM7.529-18.911h3.047a3.039,3.039,0,0,1,3.047,2.974,3.019,3.019,0,0,1-3.047,2.974l-3.047-.015Zm29.824-.029v-4.673H23.115V0H37.354V-4.717H27.861V-9.595h8.145v-4.731H27.861V-18.94Z" transform="translate(582 3117.5)" fill="none" stroke="#7474f5" stroke-width="1"/>
    <line id="Line_13" data-name="Line 13" x2="371" transform="translate(250 3048)" fill="none" stroke="#0e0920" stroke-width="1" opacity="0.1"/>
    <line id="Line_18" data-name="Line 18" x2="180" transform="translate(356 3017) rotate(90)" fill="none" stroke="#0e0920" stroke-width="1" opacity="0.1"/>
    <line id="Line_20" data-name="Line 20" x2="180" transform="translate(511 3017) rotate(90)" fill="none" stroke="#0e0920" stroke-width="1" opacity="0.1"/>
    <line id="Line_15" data-name="Line 15" x2="371" transform="translate(250 3160)" fill="none" stroke="#0e0920" stroke-width="1" opacity="0.1"/>
    <line id="Line_14" data-name="Line 14" x2="371" transform="translate(250 3053)" fill="none" stroke="#0e0920" stroke-width="1" opacity="0.1"/>
    <line id="Line_17" data-name="Line 17" x2="180" transform="translate(361 3017) rotate(90)" fill="none" stroke="#0e0920" stroke-width="1" opacity="0.1"/>
    <line id="Line_19" data-name="Line 19" x2="180" transform="translate(516 3017) rotate(90)" fill="none" stroke="#0e0920" stroke-width="1" opacity="0.1"/>
    <line id="Line_16" data-name="Line 16" x2="371" transform="translate(250 3165)" fill="none" stroke="#0e0920" stroke-width="1" opacity="0.1"/>
    <g id="Ellipse_11" data-name="Ellipse 11" transform="translate(384 3053)" fill="none" stroke="#0e0920" stroke-width="10">
      <circle cx="52" cy="52" r="52" stroke="none"/>
      <circle cx="52" cy="52" r="47" fill="none"/>
    </g>
    <circle id="Ellipse_12" data-name="Ellipse 12" cx="12" cy="12" r="12" transform="translate(424 3109)" fill="#7474f5"/>
  </g>
</svg>
