<svg xmlns="http://www.w3.org/2000/svg" width="233.37" height="43.18" viewBox="0 0 233.37 43.18">
  <g id="Group_2" data-name="Group 2" transform="translate(-652 -673)">
    <path id="Path_1" data-name="Path 1" d="M45.12,26V42.16H37.45V26c0-5.11-1.44-7-5-7-4.13,0-6,2.57-6,7.05V42.16H18.73V26c0-5.11-1.45-7-5-7-4.14,0-6,2.57-6,7.05V42.16H0V12.28H7.17L7.45,15a11.49,11.49,0,0,1,8.81-3.74c3.59,0,6.8,1.3,8.62,5.45A11.47,11.47,0,0,1,35,11.28C40.47,11.28,45.12,14.34,45.12,26Z" transform="translate(652 672.99)" fill="#0e0920"/>
    <path id="Path_2" data-name="Path 2" d="M49.08,22.14A20.88,20.88,0,1,1,69.93,42.93,20.88,20.88,0,0,1,49.08,22.14Zm33.6-.05A12.73,12.73,0,1,0,69.93,34.76,12.73,12.73,0,0,0,82.68,22.09Z" transform="translate(652 672.99)" fill="#0e0920"/>
    <path id="Path_3" data-name="Path 3" d="M94.81,4.33A4.33,4.33,0,1,1,96.075,7.4,4.33,4.33,0,0,1,94.81,4.33Zm.49,8H103V42.16H95.3Z" transform="translate(652 672.99)" fill="#0e0920"/>
    <path id="Path_4" data-name="Path 4" d="M107.31,37.15l4.31-5A8.92,8.92,0,0,0,119,35.74c1.79,0,4.11-.45,4.11-2.15s-2.54-2.41-6.15-4c-3.44-1.49-8.24-3.91-8.24-9.24,0-5.63,5.38-9.11,10.93-9.11,4.63,0,8.84,2.41,10.21,5.47l-5.28,4.44a6.33,6.33,0,0,0-5.18-2.44c-1.54,0-3,.42-3,1.64,0,1.47,2.09,2.09,5.58,3.64,6,2.69,8.81,4.85,8.81,9.26,0,6-5.7,9.94-12.08,9.94C113.23,43.21,108.88,40.32,107.31,37.15Z" transform="translate(652 672.99)" fill="#0e0920"/>
    <path id="Path_5" data-name="Path 5" d="M136.34,32.15V19.75h-4v-7h.95c2.19,0,3.53-1.45,3.53-3.79V6.3H144v6h6v7.47h-6v12.4c0,2,.63,3.16,2.54,3.16a14,14,0,0,0,3.44-.62v7.07a24.08,24.08,0,0,1-6,.9C139,42.66,136.34,39.05,136.34,32.15Z" transform="translate(652 672.99)" fill="#0e0920"/>
    <path id="Path_6" data-name="Path 6" d="M153.2,28.56V12.28h7.67V28.54c0,4.08,2.17,6.52,5.53,6.52s5.78-2.44,5.78-6.52V12.28h7.67V28.56c0,8.15-5.58,14-13.42,14S153.2,36.68,153.2,28.56Z" transform="translate(652 672.99)" fill="#0e0920"/>
    <path id="Path_7" data-name="Path 7" d="M203.51,11l-1.25,8.42h-1c-3.37,0-8.3,1.3-8.3,10.31V42.16H185.3V12.28h7.18l.39,4A13.5,13.5,0,0,1,203.51,11Z" transform="translate(652 672.99)" fill="#0e0920"/>
    <path id="Path_8" data-name="Path 8" d="M232.62,30.26H211.8a7.94,7.94,0,0,0,7.57,5.43,9.89,9.89,0,0,0,6.7-2.82L231.23,38a16.38,16.38,0,0,1-12,5.16c-8.62,0-15.34-6.78-15.34-15.94s6.82-15.94,15.31-15.94c9,0,14.17,7.47,14.17,14.74a11.81,11.81,0,0,1-.75,4.24Zm-20.94-6h14.07c-.8-3.26-3-5.53-6.6-5.53a7.69,7.69,0,0,0-7.47,5.55Z" transform="translate(652 672.99)" fill="#0e0920"/>
    <circle id="Ellipse_2" data-name="Ellipse 2" cx="5" cy="5" r="5" transform="translate(716.86 690.15)" fill="#7474f5"/>
  </g>
</svg>
