<svg xmlns="http://www.w3.org/2000/svg" width="65.703" height="80.595" viewBox="0 0 65.703 80.595">
  <path id="apple" d="M36.252,7.014A17.25,17.25,0,0,1,48.909,0a17.21,17.21,0,0,1-4.166,12.883c-5.617,6.75-12,5.645-12,5.645S31.543,13.22,36.252,7.014ZM33.415,23.125c2.724,0,7.78-3.745,14.361-3.745,11.328,0,15.785,8.061,15.785,8.061a17.5,17.5,0,0,0-8.716,15.27c0,12.2,10.858,16.4,10.858,16.4s-7.59,21.363-17.842,21.363c-4.709,0-8.37-3.173-13.331-3.173-5.056,0-10.073,3.292-13.341,3.292C11.827,80.595,0,60.33,0,44.039,0,28.012,10.011,19.6,19.4,19.6c6.1,0,10.841,3.52,14.015,3.52Z" fill="#999" opacity="0.3"/>
</svg>
