<svg xmlns="http://www.w3.org/2000/svg" xmlns:xlink="http://www.w3.org/1999/xlink" width="69.567" height="69.567" viewBox="0 0 69.567 69.567">
  <defs>
    <clipPath id="clip-path">
      <path id="Path_31" data-name="Path 31" d="M0,0H69.567V69.567H0Z" fill="#e0e0e0"/>
    </clipPath>
  </defs>
  <g id="wordpress-blue" clip-path="url(#clip-path)">
    <path id="Path_26" data-name="Path 26" d="M232.917,43.094h-12.07v1.28c3.775,0,4.382.809,4.382,5.6V58.6c0,4.787-.606,5.664-4.382,5.664-2.9-.4-4.855-1.955-7.552-4.923l-3.1-3.371c4.18-.743,6.4-3.372,6.4-6.339,0-3.708-3.168-6.54-9.1-6.54H195.631v1.28c3.775,0,4.382.809,4.382,5.6V58.6c0,4.787-.606,5.664-4.382,5.664v1.281h13.417V64.266c-3.775,0-4.382-.877-4.382-5.664V56.176h1.146l7.485,9.371h19.621c9.642,0,13.823-5.124,13.823-11.26s-4.181-11.193-13.823-11.193Zm-28.251,10.99V45.117h2.764c3.034,0,4.383,2.09,4.383,4.517a4.115,4.115,0,0,1-4.383,4.45Zm28.454,9.373h-.472c-2.427,0-2.764-.606-2.764-3.708V45.117h3.236c7.012,0,8.292,5.124,8.292,9.1C241.413,58.332,240.132,63.457,233.12,63.457ZM158.076,56.58l4.652-13.756c1.349-3.978.743-5.123-3.573-5.123V36.351h12.676V37.7c-4.247,0-5.259,1.011-6.944,5.933L157.2,66.693h-.876l-6.878-21.1-7.012,21.1h-.877l-7.484-23.06c-1.618-4.922-2.7-5.933-6.608-5.933V36.352h14.969V37.7c-3.979,0-5.058.944-3.641,5.123l4.517,13.756,6.81-20.229H151.4l6.676,20.228ZM181,66.423c-7.416,0-13.485-5.461-13.485-12.137,0-6.608,6.069-12.07,13.485-12.07s13.485,5.462,13.485,12.07C194.485,60.962,188.417,66.423,181,66.423Zm0-22.115c-6.2,0-8.361,5.6-8.361,9.978,0,4.451,2.159,9.979,8.361,9.979,6.271,0,8.429-5.529,8.429-9.979C189.429,49.9,187.271,44.308,181,44.308Z" transform="translate(-55.091 -15.711)" fill="#e0e0e0"/>
    <path id="Path_27" data-name="Path 27" d="M355.111,64.2v1.349H339.67V64.2c4.518,0,5.327-1.146,5.327-7.89V45.521c0-6.744-.809-7.821-5.327-7.821V36.35h13.957c6.944,0,10.789,3.574,10.789,8.362,0,4.652-3.844,8.293-10.789,8.293h-3.844v3.3C349.784,63.052,350.592,64.2,355.111,64.2Zm-1.484-25.421h-3.844V50.51h3.844c3.776,0,5.529-2.629,5.529-5.8C359.156,41.475,357.4,38.777,353.627,38.777Zm57.109,20.431-.338,1.213c-.606,2.225-1.349,3.034-6.136,3.034h-.944c-3.506,0-4.113-.809-4.113-5.6v-3.1c5.259,0,5.664.471,5.664,3.978h1.281V48.69H404.87c0,3.506-.4,3.978-5.664,3.978V45.117h3.708c4.788,0,5.529.809,6.136,3.034l.338,1.281h1.078l-.471-6.338H390.17v1.28c3.775,0,4.383.809,4.383,5.6V58.6c0,4.379-.515,5.483-3.492,5.64-2.829-.433-4.772-1.975-7.43-4.9l-3.1-3.371c4.181-.743,6.406-3.372,6.406-6.339,0-3.708-3.169-6.54-9.1-6.54H365.967v1.28c3.775,0,4.383.809,4.383,5.6V58.6c0,4.787-.606,5.664-4.383,5.664v1.281h13.418V64.266c-3.775,0-4.383-.877-4.383-5.664V56.176h1.147l7.484,9.371h27.712l.4-6.337h-1.013ZM375,54.083V45.117h2.764c3.034,0,4.383,2.09,4.383,4.517a4.116,4.116,0,0,1-4.383,4.45Zm49.422,12.339a9.968,9.968,0,0,1-6.069-2.293,4.839,4.839,0,0,0-1.078,2.293H416v-9.3h1.349c.54,4.45,3.641,7.08,7.619,7.08,2.158,0,3.911-1.214,3.911-3.236,0-1.753-1.55-3.1-4.315-4.383l-3.844-1.82c-2.7-1.282-4.719-3.508-4.719-6.473,0-3.236,3.034-6,7.215-6a8.444,8.444,0,0,1,5.259,1.753,3.809,3.809,0,0,0,.877-1.821h1.281v7.957h-1.416c-.472-3.169-2.225-5.8-5.8-5.8-1.888,0-3.641,1.078-3.641,2.765,0,1.753,1.416,2.7,4.653,4.18l3.708,1.82c3.237,1.551,4.517,4.047,4.517,6.069C432.649,63.456,428.941,66.422,424.424,66.422Zm20.767,0a9.965,9.965,0,0,1-6.069-2.293,4.839,4.839,0,0,0-1.078,2.293h-1.281v-9.3h1.349c.539,4.45,3.64,7.08,7.619,7.08,2.158,0,3.911-1.214,3.911-3.236,0-1.753-1.551-3.1-4.316-4.383l-3.844-1.82c-2.7-1.282-4.719-3.508-4.719-6.473,0-3.236,3.034-6,7.215-6a8.445,8.445,0,0,1,5.259,1.753,3.8,3.8,0,0,0,.875-1.821h1.282v7.957h-1.416c-.472-3.169-2.225-5.8-5.8-5.8-1.888,0-3.642,1.078-3.642,2.765,0,1.753,1.416,2.7,4.653,4.18l3.708,1.82c3.236,1.551,4.517,4.047,4.517,6.069C453.415,63.456,449.707,66.422,445.19,66.422Z" transform="translate(-146.809 -15.711)" fill="#e0e0e0"/>
    <g id="Group_9" data-name="Group 9">
      <path id="Path_28" data-name="Path 28" d="M8.708,38.547A29.846,29.846,0,0,0,25.525,65.4l-14.234-39A29.726,29.726,0,0,0,8.708,38.547Zm49.984-1.506a15.711,15.711,0,0,0-2.461-8.23c-1.513-2.458-2.93-4.539-2.93-7a5.167,5.167,0,0,1,5.01-5.3c.132,0,.258.016.387.024a29.834,29.834,0,0,0-45.083,5.617c.7.021,1.36.035,1.92.035,3.121,0,7.952-.379,7.952-.379a1.233,1.233,0,0,1,.192,2.458s-1.617.19-3.416.284L31.131,56.878l6.531-19.585-4.65-12.737c-1.607-.094-3.129-.284-3.129-.284a1.233,1.233,0,0,1,.189-2.458s4.928.379,7.86.379c3.121,0,7.952-.379,7.952-.379a1.233,1.233,0,0,1,.191,2.458s-1.62.19-3.415.284L53.444,56.633l2.976-9.946c1.291-4.127,2.272-7.092,2.272-9.646Z" transform="translate(-3.764 -3.764)" fill="#e0e0e0"/>
      <path id="Path_29" data-name="Path 29" d="M55.369,52.972,46.416,78.987a29.848,29.848,0,0,0,18.338-.475,2.528,2.528,0,0,1-.212-.411Zm25.66-16.926a22.9,22.9,0,0,1,.2,3.068A28.148,28.148,0,0,1,78.961,49.8L69.846,76.155A29.845,29.845,0,0,0,81.028,36.046Z" transform="translate(-20.061 -15.579)" fill="#e0e0e0"/>
      <path id="Path_30" data-name="Path 30" d="M34.784,0A34.784,34.784,0,1,0,69.57,34.783,34.823,34.823,0,0,0,34.784,0Zm0,67.973a33.189,33.189,0,1,1,33.187-33.19,33.228,33.228,0,0,1-33.187,33.19Z" fill="#e0e0e0"/>
    </g>
  </g>
</svg>
