<svg id="php-1" xmlns="http://www.w3.org/2000/svg" width="122.902" height="63.976" viewBox="0 0 122.902 63.976">
  <ellipse id="Ellipse_3" data-name="Ellipse 3" cx="61.451" cy="31.988" rx="61.451" ry="31.988" transform="translate(0 0)" fill="#e0e0e0"/>
  <path id="Path_32" data-name="Path 32" d="M35.945,59.589,42.68,25.5H58.252c6.734.421,10.1,3.788,10.1,9.681,0,10.1-8,15.994-15.152,15.573H45.626l-1.684,8.839ZM47.309,44.437l2.1-12.627h5.472c2.946,0,5.051,1.263,5.051,3.788-.421,7.156-3.788,8.418-7.576,8.839H47.31Zm19.48,6.313,6.734-34.092h8L79.837,25.5h7.576c6.735.421,9.26,3.788,8.418,8L92.885,50.75H84.467l2.946-15.573c.421-2.1.421-3.367-2.525-3.367H78.574L74.786,50.75Zm25.556,8.839L99.08,25.5h15.573c6.735.421,10.1,3.788,10.1,9.681,0,10.1-8,15.994-15.152,15.573h-7.576l-1.684,8.839Zm11.364-15.152,2.1-12.627h5.472c2.946,0,5.051,1.263,5.051,3.788-.421,7.156-3.788,8.418-7.576,8.839H103.71Z" transform="translate(-18.688 -8.661)" fill="#f8f8f8" fill-rule="evenodd"/>
</svg>
