<svg xmlns="http://www.w3.org/2000/svg" width="85" height="84.558" viewBox="0 0 85 84.558">
  <g id="python-5" transform="translate(-0.145 -0.072)">
    <path id="Path_37" data-name="Path 37" d="M42.339.072C20.76.072,22.108,9.43,22.108,9.43l.024,9.695H42.724v2.911H13.953S.145,20.469.145,42.242s12.052,21,12.052,21H19.39v-10.1S19,41.087,31.249,41.087H51.672S63.147,41.272,63.147,30V11.354S64.89.072,42.339.072ZM30.984,6.592a3.7,3.7,0,1,1-2.62,1.084A3.7,3.7,0,0,1,30.984,6.592Z" fill="#e0e0e0"/>
    <path id="Path_38" data-name="Path 38" d="M86.984,127.495c21.578,0,20.231-9.358,20.231-9.358l-.024-9.694H86.6v-2.911h28.771s13.808,1.566,13.808-20.207-12.052-21-12.052-21h-7.193v10.1s.388,12.052-11.86,12.052H77.65s-11.474-.185-11.474,11.09v18.643s-1.742,11.282,20.808,11.282Zm11.354-6.519a3.7,3.7,0,1,1,2.62-1.084,3.7,3.7,0,0,1-2.62,1.084Z" transform="translate(-44.032 -42.865)" fill="#e0e0e0"/>
  </g>
</svg>
