<svg xmlns="http://www.w3.org/2000/svg" width="64.155" height="73.437" viewBox="0 0 64.155 73.437">
  <g id="android" transform="translate(-32.164 -67.96)">
    <path id="Path_1" data-name="Path 1" d="M92.13,207.092a4.485,4.485,0,0,1,4.485,4.485v19.241a4.485,4.485,0,0,1-8.971,0V211.577a4.485,4.485,0,0,1,4.485-4.485Z" transform="translate(-38.006 -93.907)" fill="#e0e0e0"/>
    <path id="Path_2" data-name="Path 2" d="M69.314,133.645c-.015.17-.028.342-.028.516v29.152a5.6,5.6,0,0,0,5.562,5.661h29.646a5.6,5.6,0,0,0,5.563-5.661V134.161c0-.174-.006-.346-.021-.516Z" transform="translate(-25.43 -43.593)" fill="#e0e0e0"/>
    <path id="Path_3" data-name="Path 3" d="M74.359,115.065a4.485,4.485,0,0,1,4.485,4.485v19.241a4.485,4.485,0,0,1-8.971,0V119.55a4.485,4.485,0,0,1,4.485-4.485ZM36.649,94.526a4.485,4.485,0,0,1,4.485,4.485v19.241a4.485,4.485,0,0,1-8.971,0V99.012A4.485,4.485,0,0,1,36.649,94.526Zm55.185,0a4.485,4.485,0,0,1,4.485,4.485v19.241a4.485,4.485,0,0,1-8.971,0V99.012A4.486,4.486,0,0,1,91.834,94.526ZM44.015,90.017c.125-8.954,7.94-16.3,17.973-17.264H66.5c10.033.968,17.848,8.31,17.973,17.264Z" transform="translate(0 -1.88)" fill="#e0e0e0"/>
    <path id="Path_4" data-name="Path 4" d="M74.743,70.009l4.731,8.2m32.6-8.2-4.732,8.2" transform="translate(-29.168)" fill="#e0e0e0" stroke="#e0e0e0" stroke-linecap="round" stroke-linejoin="round" stroke-width="3"/>
    <path id="Path_5" data-name="Path 5" d="M104.784,97.144a2.321,2.321,0,0,1-4.641.013v-.013a2.321,2.321,0,0,1,4.641-.013Zm17.322,0a2.321,2.321,0,0,1-4.641.013v-.013a2.321,2.321,0,0,1,4.641-.013Z" transform="translate(-46.568 -17.031)" fill="#e0e0e0"/>
  </g>
</svg>
