<svg xmlns="http://www.w3.org/2000/svg" width="85.777" height="76.388" viewBox="0 0 85.777 76.388">
  <g id="react-2" transform="translate(-175.7 -78)">
    <path id="Path_6" data-name="Path 6" d="M261.477,116.2c0-5.682-7.116-11.067-18.026-14.407,2.518-11.12,1.4-19.967-3.532-22.8A7.666,7.666,0,0,0,236,78.018v3.9a4.049,4.049,0,0,1,1.993.455c2.378,1.364,3.409,6.557,2.605,13.235-.192,1.644-.507,3.374-.892,5.14a84.734,84.734,0,0,0-11.1-1.906,85.288,85.288,0,0,0-7.273-8.742c5.7-5.3,11.05-8.2,14.687-8.2V78c-4.808,0-11.1,3.427-17.467,9.371-6.364-5.91-12.659-9.3-17.467-9.3v3.9c3.619,0,8.987,2.885,14.687,8.148a82.578,82.578,0,0,0-7.221,8.725,81.647,81.647,0,0,0-11.12,1.923c-.4-1.748-.7-3.444-.909-5.07-.822-6.679.192-11.872,2.553-13.253a3.891,3.891,0,0,1,2.011-.455v-3.9a7.8,7.8,0,0,0-3.951.979c-4.913,2.832-6.015,11.662-3.479,22.747C182.781,105.17,175.7,110.538,175.7,116.2c0,5.682,7.116,11.067,18.026,14.407-2.518,11.12-1.4,19.967,3.532,22.8a7.686,7.686,0,0,0,3.934.979c4.808,0,11.1-3.427,17.467-9.371,6.364,5.91,12.658,9.3,17.467,9.3a7.8,7.8,0,0,0,3.951-.979c4.913-2.832,6.015-11.662,3.479-22.747,10.84-3.339,17.921-8.725,17.921-14.389Zm-22.764-11.662c-.647,2.255-1.451,4.581-2.36,6.906-.717-1.4-1.469-2.8-2.29-4.2-.8-1.4-1.661-2.762-2.518-4.091C234.027,103.527,236.422,103.981,238.713,104.541Zm-8.008,18.621c-1.364,2.36-2.762,4.6-4.214,6.679-2.605.227-5.245.35-7.9.35-2.64,0-5.28-.122-7.868-.332q-2.177-3.121-4.231-6.644-1.993-3.436-3.637-6.959c1.084-2.343,2.308-4.686,3.619-6.976,1.364-2.36,2.762-4.6,4.214-6.679,2.605-.227,5.245-.35,7.9-.35,2.64,0,5.28.122,7.868.332q2.177,3.121,4.231,6.644,1.993,3.436,3.637,6.959c-1.1,2.343-2.308,4.686-3.619,6.976Zm5.647-2.273c.944,2.343,1.748,4.686,2.413,6.959-2.29.559-4.7,1.032-7.2,1.4.857-1.346,1.713-2.728,2.518-4.144.8-1.4,1.556-2.815,2.273-4.214Zm-17.729,18.656a72.08,72.08,0,0,1-4.861-5.595c1.574.07,3.182.122,4.808.122,1.644,0,3.27-.035,4.861-.122A68.238,68.238,0,0,1,218.624,139.544Zm-13.008-10.3c-2.483-.367-4.878-.822-7.169-1.381.647-2.255,1.451-4.581,2.36-6.906.717,1.4,1.469,2.8,2.29,4.2S204.759,127.917,205.615,129.246Zm12.921-36.384a72.084,72.084,0,0,1,4.861,5.595c-1.574-.07-3.182-.122-4.808-.122-1.644,0-3.27.035-4.861.122A68.245,68.245,0,0,1,218.536,92.862ZM205.6,103.16c-.857,1.346-1.713,2.728-2.518,4.144-.8,1.4-1.556,2.8-2.273,4.2-.944-2.343-1.748-4.686-2.413-6.959,2.29-.542,4.7-1.014,7.2-1.381Zm-15.823,21.89c-6.189-2.64-10.193-6.1-10.193-8.847s4-6.224,10.193-8.847c1.5-.647,3.147-1.224,4.843-1.766a83.973,83.973,0,0,0,3.934,10.648,82.79,82.79,0,0,0-3.881,10.6C192.939,126.291,191.3,125.7,189.775,125.05Zm9.406,24.985c-2.378-1.364-3.409-6.557-2.605-13.235.192-1.644.507-3.374.892-5.14a84.73,84.73,0,0,0,11.1,1.906,85.29,85.29,0,0,0,7.273,8.742c-5.7,5.3-11.05,8.2-14.687,8.2A4.173,4.173,0,0,1,199.181,150.035Zm41.472-13.323c.822,6.679-.192,11.872-2.553,13.253a3.891,3.891,0,0,1-2.011.455c-3.619,0-8.987-2.885-14.687-8.148a82.58,82.58,0,0,0,7.221-8.725,81.648,81.648,0,0,0,11.12-1.923A48.941,48.941,0,0,1,240.654,136.712Zm6.731-11.662c-1.5.647-3.147,1.224-4.843,1.766a83.977,83.977,0,0,0-3.934-10.648,82.79,82.79,0,0,0,3.881-10.6c1.731.542,3.374,1.136,4.913,1.783,6.189,2.64,10.193,6.1,10.193,8.847C257.578,118.948,253.574,122.427,247.385,125.05Z" fill="#e0e0e0"/>
    <circle id="Ellipse_2" data-name="Ellipse 2" cx="7.99" cy="7.99" r="7.99" transform="translate(210.581 108.213)" fill="#e0e0e0"/>
  </g>
</svg>
