<svg xmlns="http://www.w3.org/2000/svg" width="87.831" height="78.449" viewBox="0 0 87.831 78.449">
  <g id="swift-15" transform="translate(31.6 189)">
    <path id="Path_14" data-name="Path 14" d="M80.514,38c38.607,26.257,26.119,55.212,26.119,55.212s10.978,12.4,6.541,23.238c0,0-4.529-7.593-12.122-7.593-7.319,0-11.619,7.593-26.348,7.593-32.8,0-48.3-27.4-48.3-27.4,29.55,19.441,49.723,5.672,49.723,5.672C62.812,86.991,34.5,50.03,34.5,50.03c24.656,21,35.314,26.531,35.314,26.531-6.358-5.26-24.2-30.968-24.2-30.968C59.884,60.048,88.245,80.221,88.245,80.221,96.3,57.9,80.514,38,80.514,38Z" transform="translate(-58 -227)" fill="#e0e0e0"/>
  </g>
</svg>
