<svg xmlns="http://www.w3.org/2000/svg" width="194.783" height="94.269" viewBox="0 0 194.783 94.269">
  <g id="nodejs" transform="translate(-0.857 -0.382)">
    <g id="Group_10" data-name="Group 10" transform="translate(83.519 62.166)">
      <path id="Path_33" data-name="Path 33" d="M444.518,51.611a2.494,2.494,0,0,0-1.24.3L431.352,58.8a2.514,2.514,0,0,0-1.241,2.178V74.728a2.515,2.515,0,0,0,1.241,2.177l3.114,1.8a5.092,5.092,0,0,0,2.76.734c2.24,0,3.519-1.359,3.519-3.722V62.144a.34.34,0,0,0-.354-.329H438.9a.339.339,0,0,0-.354.329V75.715c0,1.047-1.091,2.1-2.861,1.215l-3.241-1.9a.357.357,0,0,1-.2-.3V60.979a.4.4,0,0,1,.2-.329l11.9-6.861a.351.351,0,0,1,.354,0l11.9,6.861a.4.4,0,0,1,.2.329V74.728a.382.382,0,0,1-.177.329l-11.926,6.861a.366.366,0,0,1-.354,0L441.277,80.1a.318.318,0,0,0-.3,0,7.887,7.887,0,0,1-1.8.81c-.2.068-.492.174.1.507l4,2.354a2.5,2.5,0,0,0,2.481,0l11.926-6.862a2.518,2.518,0,0,0,1.24-2.177V60.979a2.514,2.514,0,0,0-1.24-2.177l-11.926-6.887a2.482,2.482,0,0,0-1.24-.3Z" transform="translate(-430.111 -51.611)" fill="#e0e0e0"/>
      <path id="Path_34" data-name="Path 34" d="M469.391,79.528c-3.4,0-5.418,1.445-5.418,3.849,0,2.607,2.007,3.323,5.267,3.646,3.9.382,4.2.954,4.2,1.722,0,1.331-1.061,1.9-3.57,1.9-3.152,0-3.845-.787-4.076-2.355a.344.344,0,0,0-.329-.3h-1.544a.362.362,0,0,0-.354.355c0,2.007,1.092,4.38,6.3,4.38,3.774,0,5.95-1.481,5.95-4.076,0-2.572-1.758-3.263-5.419-3.747-3.7-.489-4.051-.729-4.051-1.6,0-.715.3-1.672,3.038-1.672,2.447,0,3.352.528,3.722,2.178a.346.346,0,0,0,.329.278h1.545a.374.374,0,0,0,.253-.127.332.332,0,0,0,.1-.253c-.239-2.841-2.134-4.178-5.95-4.178Z" transform="translate(-451.794 -69.704)" fill="#e0e0e0"/>
    </g>
    <path id="Path_35" data-name="Path 35" d="M131.942.383A1.042,1.042,0,0,0,130.9,1.427V28.055a.7.7,0,0,1-.348.626.726.726,0,0,1-.731,0l-4.351-2.506a2.085,2.085,0,0,0-2.088,0L106.011,36.2a2.139,2.139,0,0,0-1.044,1.845V58.094a2.084,2.084,0,0,0,1.044,1.81l17.369,10.025a2.08,2.08,0,0,0,2.088,0L142.837,59.9a2.084,2.084,0,0,0,1.044-1.81V8.11A2.122,2.122,0,0,0,142.8,6.265L132.464.487a1.016,1.016,0,0,0-.522-.1ZM20.21,25.409a1.962,1.962,0,0,0-.939.243L1.9,35.677a2.08,2.08,0,0,0-1.044,1.81L.892,64.394a1.027,1.027,0,0,0,.522.9,1.014,1.014,0,0,0,1.044,0l10.3-5.917a2.127,2.127,0,0,0,1.079-1.81V45.006a2.078,2.078,0,0,1,1.044-1.81l4.385-2.541a2.1,2.1,0,0,1,2.088,0L25.744,43.2a2.078,2.078,0,0,1,1.044,1.81V57.571a2.13,2.13,0,0,0,1.079,1.81L38.17,65.3a1.014,1.014,0,0,0,1.044,0,1.047,1.047,0,0,0,.522-.905l.034-26.907a2.071,2.071,0,0,0-1.044-1.81L21.358,25.653a1.95,1.95,0,0,0-.939-.243Zm156.077.243a2.083,2.083,0,0,0-1.044.279L157.874,35.956a2.083,2.083,0,0,0-1.044,1.81V57.815a2.1,2.1,0,0,0,1.079,1.81l17.23,9.816a2.09,2.09,0,0,0,2.054.034l10.442-5.813a1.055,1.055,0,0,0,.557-.9,1.029,1.029,0,0,0-.522-.905L170.2,51.828a1.125,1.125,0,0,1-.557-.94V44.623a1.074,1.074,0,0,1,.557-.905l5.43-3.133a1.043,1.043,0,0,1,1.044,0l5.429,3.133a1.041,1.041,0,0,1,.522.9v4.943a1.044,1.044,0,0,0,1.566.9L194.6,44.414a2.092,2.092,0,0,0,1.044-1.81V37.766a2.089,2.089,0,0,0-1.044-1.81L177.331,25.931a2.07,2.07,0,0,0-1.044-.278ZM124.354,40.62a.583.583,0,0,1,.279.069l5.952,3.446a.54.54,0,0,1,.279.452v6.892a.537.537,0,0,1-.279.453l-5.952,3.446a.526.526,0,0,1-.522,0l-5.952-3.446a.539.539,0,0,1-.279-.453V44.588a.541.541,0,0,1,.279-.452l5.952-3.445a.459.459,0,0,1,.244-.069h0Z" transform="translate(0)" fill="#e0e0e0"/>
    <path id="Path_36" data-name="Path 36" d="M127.951,52.4a2.082,2.082,0,0,0-1.044.279l-17.369,9.99a2.138,2.138,0,0,0-1.044,1.845V84.564a2.083,2.083,0,0,0,1.044,1.81L126.907,96.4a2.079,2.079,0,0,0,2.088,0l17.369-10.024a2.084,2.084,0,0,0,1.044-1.81V64.515a2.137,2.137,0,0,0-1.044-1.845L129,52.681A2.079,2.079,0,0,0,127.951,52.4ZM231.817,70.293a.426.426,0,0,0-.208.035l-3.341,1.949a.406.406,0,0,0-.209.348v3.829a.407.407,0,0,0,.209.348l3.341,1.914a.364.364,0,0,0,.383,0l3.341-1.915a.409.409,0,0,0,.209-.348V72.625a.409.409,0,0,0-.209-.348l-3.341-1.95a.29.29,0,0,0-.174-.034Z" transform="translate(-55.565 -26.854)" fill="#e0e0e0"/>
  </g>
</svg>
