<svg xmlns="http://www.w3.org/2000/svg" width="61.819" height="69.526" viewBox="0 0 61.819 69.526">
  <g id="c--4" transform="translate(-204.925 -157.745)">
    <path id="Path_17" data-name="Path 17" d="M266.744,178.164a6.029,6.029,0,0,0-.762-3.085,5.822,5.822,0,0,0-2.228-2.171q-12.341-7.113-24.7-14.226a6.079,6.079,0,0,0-6.57.057c-3.276,1.924-19.692,11.332-24.568,14.169a5.7,5.7,0,0,0-2.99,5.275v28.643a6.245,6.245,0,0,0,.724,3.028,5.972,5.972,0,0,0,2.266,2.247c4.895,2.838,21.292,12.227,24.568,14.169a6.043,6.043,0,0,0,6.57.057q12.341-7.142,24.7-14.226a5.716,5.716,0,0,0,2.266-2.247,6.245,6.245,0,0,0,.724-3.028Z" fill="#e0e0e0"/>
    <g id="Group_8" data-name="Group 8" transform="translate(215.266 171.955)">
      <path id="Path_21" data-name="Path 21" d="M361.124,357.434a10.237,10.237,0,1,1-.076-10.132l8.932-5.142a20.512,20.512,0,1,0,.076,20.435Zm11.294-9.865H370.38v9.846h2.038Zm4.514,0h-2.038v9.846h2.038Z" transform="translate(-331.662 -331.895)" fill="#f8f8f8"/>
      <path id="Path_22" data-name="Path 22" d="M795.937,544.289h-9.846v2.038h9.846Zm0,4.495h-9.846v2.038h9.846Z" transform="translate(-749.011 -526.958)" fill="#f8f8f8"/>
    </g>
  </g>
</svg>
