<svg xmlns="http://www.w3.org/2000/svg" width="61.542" height="69.987" viewBox="0 0 61.542 69.987">
  <g id="shopify" transform="translate(-0.038 -0.779)">
    <path id="Path_23" data-name="Path 23" d="M53.94,14.406a.676.676,0,0,0-.611-.568c-.254-.021-5.633-.42-5.633-.42S43.96,9.709,43.55,9.3A1.7,1.7,0,0,0,42.027,9.1l-2.091.646c-1.248-3.591-3.45-6.891-7.325-6.891-.107,0-.217,0-.327.011A4.709,4.709,0,0,0,28.638.779C19.612.779,15.3,12.062,13.948,17.8c-3.507,1.087-6,1.859-6.317,1.959-1.958.614-2.02.676-2.277,2.521C5.16,23.673.038,63.287.038,63.287l39.915,7.479L61.58,66.087s-7.592-51.33-7.64-51.681ZM37.73,10.432l-3.377,1.045c0-.238,0-.472,0-.728A16.567,16.567,0,0,0,33.548,5.3C35.545,5.547,36.875,7.818,37.73,10.432ZM31.072,5.739a16.743,16.743,0,0,1,.916,6.08c0,.138,0,.264,0,.391L25.01,14.37c1.343-5.184,3.861-7.687,6.062-8.632ZM28.39,3.2a2.038,2.038,0,0,1,1.158.391c-2.893,1.361-5.993,4.789-7.3,11.636l-5.514,1.708C18.265,11.712,21.907,3.2,28.39,3.2Z" transform="translate(0 0)" fill="#e0e0e0"/>
    <path id="Path_24" data-name="Path 24" d="M179.1,39.846c-.254-.021-5.633-.42-5.633-.42s-3.736-3.709-4.146-4.119a1.024,1.024,0,0,0-.577-.265l-3.018,61.732L187.349,92.1s-7.592-51.33-7.64-51.681a.676.676,0,0,0-.611-.568" transform="translate(-125.769 -26.008)" fill="#e0e0e0"/>
    <path id="Path_25" data-name="Path 25" d="M62.354,101.292l-2.667,7.933a12.267,12.267,0,0,0-5.2-1.247c-4.2,0-4.41,2.635-4.41,3.3,0,3.623,9.444,5.011,9.444,13.5,0,6.677-4.235,10.976-9.944,10.976a13.835,13.835,0,0,1-10.356-4.264l1.835-6.062s3.6,3.092,6.641,3.092a2.679,2.679,0,0,0,2.794-2.706c0-4.726-7.748-4.937-7.748-12.7,0-6.536,4.691-12.861,14.161-12.861a11.65,11.65,0,0,1,5.451,1.045" transform="translate(-29.743 -75.504)" fill="#f8f8f8"/>
  </g>
</svg>
