<svg xmlns="http://www.w3.org/2000/svg" width="808.73" height="185.932" viewBox="0 0 808.73 185.932">
  <g id="Group_1733" data-name="Group 1733" transform="translate(-551.433 -207)">
    <path id="Path_11472" data-name="Path 11472" d="M-54.224-88.73l-41.411,57.2L-137.1-88.73h-.967V0h17.4V-37.705L-95.689-1.45h.107L-70.66-37.705V0h17.4V-88.73Zm55,90.4A45.124,45.124,0,0,0,45.895-43.184,45.25,45.25,0,0,0,.831-88.354a45.2,45.2,0,0,0-45.01,45.171A45.055,45.055,0,0,0,.778,1.665Zm0-17.617A27.427,27.427,0,0,1-26.615-43.291,27.5,27.5,0,0,1,.778-70.791a27.553,27.553,0,0,1,27.5,27.5A27.485,27.485,0,0,1,.778-15.952ZM54.974,0h17.4V-86.582h-17.4Zm56.184,1.719c18.53,0,31.421-10.044,31.421-25.835,0-13.32-9.023-20.625-23.364-27.393-9.937-4.673-16.489-6.445-16.489-11.6,0-4.458,4.834-8.218,11.333-8.218,4.834,0,9.829,2.095,12.407,7.251l12.837-8.97c-3.921-10.474-13.7-15.361-25.513-15.361-15.9,0-28.574,9.883-28.574,24.868,0,13.8,10.688,19.121,20.41,23.955,9.077,4.512,19.443,9.507,19.443,15.845,0,4.619-5.479,7.949-13.643,7.949-7.466,0-13-2.793-16.812-8.916L80.7-14.932C86.5-4.189,96.978,1.719,111.158,1.719Z" transform="translate(690 367.5)" fill="none" stroke="#7474f5" stroke-width="1"/>
    <path id="Path_11473" data-name="Path 11473" d="M-76.622-86.582h-60.049v17.241h21.323V0h17.456V-69.341h21.27ZM-36.39,1.88c18.423,0,33.408-14.287,33.408-33.892v-54.57h-17.51v54.517A16.174,16.174,0,0,1-36.444-15.737,16.051,16.051,0,0,1-52.289-32.065V-86.582H-69.8v54.57C-69.8-12.407-54.813,1.88-36.39,1.88ZM75.384,0l-24.6-34.429c9.292-3.276,16.006-13,16.006-24.116,0-15.576-13.267-28.037-29.434-28.037H9.105L9.159,0h17.4V-40.928L54.115,0ZM26.507-69.341H37.679a11.141,11.141,0,0,1,11.172,10.9,11.071,11.071,0,0,1-11.172,10.9l-11.172-.054Zm107.155-.107V-86.582H81.456V0h52.207V-17.295h-34.8V-35.181h29.863V-52.529H98.858V-69.448Z" transform="translate(1226 367.5)" fill="none" stroke="#7474f5" stroke-width="1"/>
    <line id="Line_13" data-name="Line 13" x2="600" transform="translate(660 272)" fill="none" stroke="#0e0920" stroke-width="1" opacity="0.1"/>
    <line id="Line_18" data-name="Line 18" x2="129.312" transform="translate(833.5 263.62) rotate(90)" fill="none" stroke="#0e0920" stroke-width="1" opacity="0.1"/>
    <line id="Line_20" data-name="Line 20" x2="129.312" transform="translate(1082.5 263.62) rotate(90)" fill="none" stroke="#0e0920" stroke-width="1" opacity="0.1"/>
    <line id="Line_15" data-name="Line 15" x2="600" transform="translate(660 370)" fill="none" stroke="#0e0920" stroke-width="1" opacity="0.1"/>
    <line id="Line_14" data-name="Line 14" x2="600" transform="translate(660 278)" fill="none" stroke="#0e0920" stroke-width="1" opacity="0.1"/>
    <line id="Line_17" data-name="Line 17" x2="129.312" transform="translate(839.5 263.62) rotate(90)" fill="none" stroke="#0e0920" stroke-width="1" opacity="0.1"/>
    <line id="Line_19" data-name="Line 19" x2="129.312" transform="translate(1088.5 263.62) rotate(90)" fill="none" stroke="#0e0920" stroke-width="1" opacity="0.1"/>
    <line id="Line_16" data-name="Line 16" x2="600" transform="translate(660 376)" fill="none" stroke="#0e0920" stroke-width="1" opacity="0.1"/>
    <g id="Ellipse_5" data-name="Ellipse 5" transform="translate(880 207)" fill="none" stroke="#0e0920" stroke-width="15">
      <circle cx="80" cy="80" r="80" stroke="none"/>
      <circle cx="80" cy="80" r="72.5" fill="none"/>
    </g>
    <circle id="Ellipse_6" data-name="Ellipse 6" cx="16" cy="16" r="16" transform="translate(944 294)" fill="#7474f5"/>
  </g>
</svg>
